<mxfile host="app.diagrams.net" modified="2024-04-14T07:59:46.681Z" agent="Mozilla/5.0 (Macintosh; Intel Mac OS X 10_15_7) AppleWebKit/537.36 (KHTML, like Gecko) Chrome/123.0.0.0 Safari/537.36" etag="5Z-QafZ1aKw3h-qq36Iw" version="24.2.5" type="github">
  <diagram id="C5RBs43oDa-KdzZeNtuy" name="Page-1">
    <mxGraphModel dx="892" dy="596" grid="1" gridSize="10" guides="1" tooltips="1" connect="1" arrows="1" fold="1" page="1" pageScale="1" pageWidth="827" pageHeight="1169" math="0" shadow="0">
      <root>
        <mxCell id="WIyWlLk6GJQsqaUBKTNV-0" />
        <mxCell id="WIyWlLk6GJQsqaUBKTNV-1" parent="WIyWlLk6GJQsqaUBKTNV-0" />
        <mxCell id="4vUzZHwH9dfVMgiQSIoB-2" style="edgeStyle=orthogonalEdgeStyle;rounded=0;orthogonalLoop=1;jettySize=auto;html=1;" edge="1" parent="WIyWlLk6GJQsqaUBKTNV-1" source="4vUzZHwH9dfVMgiQSIoB-0" target="4vUzZHwH9dfVMgiQSIoB-1">
          <mxGeometry relative="1" as="geometry" />
        </mxCell>
        <mxCell id="4vUzZHwH9dfVMgiQSIoB-0" value="开始" style="rounded=0;whiteSpace=wrap;html=1;" vertex="1" parent="WIyWlLk6GJQsqaUBKTNV-1">
          <mxGeometry x="294" y="240" width="96" height="40" as="geometry" />
        </mxCell>
        <mxCell id="4vUzZHwH9dfVMgiQSIoB-4" style="edgeStyle=orthogonalEdgeStyle;rounded=0;orthogonalLoop=1;jettySize=auto;html=1;entryX=0.5;entryY=0;entryDx=0;entryDy=0;" edge="1" parent="WIyWlLk6GJQsqaUBKTNV-1" source="4vUzZHwH9dfVMgiQSIoB-1" target="4vUzZHwH9dfVMgiQSIoB-3">
          <mxGeometry relative="1" as="geometry" />
        </mxCell>
        <mxCell id="4vUzZHwH9dfVMgiQSIoB-1" value="调用用户自定义&lt;div&gt;系统调用&lt;/div&gt;" style="rounded=0;whiteSpace=wrap;html=1;" vertex="1" parent="WIyWlLk6GJQsqaUBKTNV-1">
          <mxGeometry x="282" y="310" width="120" height="60" as="geometry" />
        </mxCell>
        <mxCell id="4vUzZHwH9dfVMgiQSIoB-7" value="" style="edgeStyle=orthogonalEdgeStyle;rounded=0;orthogonalLoop=1;jettySize=auto;html=1;" edge="1" parent="WIyWlLk6GJQsqaUBKTNV-1" source="4vUzZHwH9dfVMgiQSIoB-3" target="4vUzZHwH9dfVMgiQSIoB-6">
          <mxGeometry relative="1" as="geometry" />
        </mxCell>
        <mxCell id="4vUzZHwH9dfVMgiQSIoB-3" value="linux根据调用号调用对应的系统调用" style="rounded=0;whiteSpace=wrap;html=1;" vertex="1" parent="WIyWlLk6GJQsqaUBKTNV-1">
          <mxGeometry x="282" y="400" width="120" height="60" as="geometry" />
        </mxCell>
        <mxCell id="4vUzZHwH9dfVMgiQSIoB-9" value="" style="edgeStyle=orthogonalEdgeStyle;rounded=0;orthogonalLoop=1;jettySize=auto;html=1;" edge="1" parent="WIyWlLk6GJQsqaUBKTNV-1" source="4vUzZHwH9dfVMgiQSIoB-6" target="4vUzZHwH9dfVMgiQSIoB-8">
          <mxGeometry relative="1" as="geometry" />
        </mxCell>
        <mxCell id="4vUzZHwH9dfVMgiQSIoB-6" value="将参数传递给&lt;div&gt;系统调用&lt;/div&gt;" style="whiteSpace=wrap;html=1;rounded=0;" vertex="1" parent="WIyWlLk6GJQsqaUBKTNV-1">
          <mxGeometry x="282" y="490" width="120" height="60" as="geometry" />
        </mxCell>
        <mxCell id="4vUzZHwH9dfVMgiQSIoB-11" value="" style="edgeStyle=orthogonalEdgeStyle;rounded=0;orthogonalLoop=1;jettySize=auto;html=1;" edge="1" parent="WIyWlLk6GJQsqaUBKTNV-1" source="4vUzZHwH9dfVMgiQSIoB-8" target="4vUzZHwH9dfVMgiQSIoB-10">
          <mxGeometry relative="1" as="geometry" />
        </mxCell>
        <mxCell id="4vUzZHwH9dfVMgiQSIoB-8" value="系统调用程序执行" style="whiteSpace=wrap;html=1;rounded=0;" vertex="1" parent="WIyWlLk6GJQsqaUBKTNV-1">
          <mxGeometry x="282" y="580" width="120" height="60" as="geometry" />
        </mxCell>
        <mxCell id="4vUzZHwH9dfVMgiQSIoB-13" value="" style="edgeStyle=orthogonalEdgeStyle;rounded=0;orthogonalLoop=1;jettySize=auto;html=1;" edge="1" parent="WIyWlLk6GJQsqaUBKTNV-1" source="4vUzZHwH9dfVMgiQSIoB-10" target="4vUzZHwH9dfVMgiQSIoB-12">
          <mxGeometry relative="1" as="geometry" />
        </mxCell>
        <mxCell id="4vUzZHwH9dfVMgiQSIoB-10" value="系统调用返回结果" style="whiteSpace=wrap;html=1;rounded=0;" vertex="1" parent="WIyWlLk6GJQsqaUBKTNV-1">
          <mxGeometry x="282" y="670" width="120" height="60" as="geometry" />
        </mxCell>
        <mxCell id="4vUzZHwH9dfVMgiQSIoB-15" value="" style="edgeStyle=orthogonalEdgeStyle;rounded=0;orthogonalLoop=1;jettySize=auto;html=1;" edge="1" parent="WIyWlLk6GJQsqaUBKTNV-1" source="4vUzZHwH9dfVMgiQSIoB-12" target="4vUzZHwH9dfVMgiQSIoB-14">
          <mxGeometry relative="1" as="geometry" />
        </mxCell>
        <mxCell id="4vUzZHwH9dfVMgiQSIoB-12" value="返回测试程序&lt;div&gt;输出结果&lt;/div&gt;" style="whiteSpace=wrap;html=1;rounded=0;" vertex="1" parent="WIyWlLk6GJQsqaUBKTNV-1">
          <mxGeometry x="282" y="760" width="120" height="60" as="geometry" />
        </mxCell>
        <mxCell id="4vUzZHwH9dfVMgiQSIoB-14" value="结束" style="whiteSpace=wrap;html=1;rounded=0;" vertex="1" parent="WIyWlLk6GJQsqaUBKTNV-1">
          <mxGeometry x="288" y="850" width="108" height="40" as="geometry" />
        </mxCell>
      </root>
    </mxGraphModel>
  </diagram>
</mxfile>
